<mxfile host="Electron" modified="2024-02-08T02:12:45.538Z" agent="Mozilla/5.0 (Windows NT 10.0; Win64; x64) AppleWebKit/537.36 (KHTML, like Gecko) draw.io/22.1.16 Chrome/120.0.6099.109 Electron/28.1.0 Safari/537.36" etag="6y2wqDRQox1XVhIORqdp" version="22.1.16" type="device">
  <diagram name="第 1 页" id="6o3pLhBRLdcL03w6bZhF">
    <mxGraphModel dx="1450" dy="638" grid="0" gridSize="10" guides="1" tooltips="1" connect="1" arrows="1" fold="1" page="0" pageScale="1" pageWidth="1169" pageHeight="827" math="0" shadow="0">
      <root>
        <mxCell id="0" />
        <mxCell id="1" parent="0" />
        <mxCell id="DIsmVBrg73zC50ADwtmq-12" value="" style="endArrow=none;html=1;rounded=0;fontSize=12;startSize=8;endSize=8;curved=1;dashed=1;fontFamily=思源黑体;" parent="1" edge="1">
          <mxGeometry width="50" height="50" relative="1" as="geometry">
            <mxPoint x="-320" y="187" as="sourcePoint" />
            <mxPoint x="660" y="187" as="targetPoint" />
          </mxGeometry>
        </mxCell>
        <mxCell id="DIsmVBrg73zC50ADwtmq-7" value="" style="rounded=0;whiteSpace=wrap;html=1;fontSize=16;fillColor=none;perimeterSpacing=0;strokeWidth=1;fontFamily=思源黑体;" parent="1" vertex="1">
          <mxGeometry x="350" y="58" width="280" height="80" as="geometry" />
        </mxCell>
        <mxCell id="DIsmVBrg73zC50ADwtmq-8" style="edgeStyle=none;curved=1;rounded=0;orthogonalLoop=1;jettySize=auto;html=1;exitX=1;exitY=0.5;exitDx=0;exitDy=0;entryX=0;entryY=0.5;entryDx=0;entryDy=0;fontSize=12;startSize=8;endSize=8;fontFamily=思源黑体;" parent="1" source="DIsmVBrg73zC50ADwtmq-1" target="DIsmVBrg73zC50ADwtmq-2" edge="1">
          <mxGeometry relative="1" as="geometry" />
        </mxCell>
        <mxCell id="DIsmVBrg73zC50ADwtmq-1" value="下载安装&lt;br&gt;加密软件" style="rounded=0;whiteSpace=wrap;html=1;fontSize=16;fontFamily=思源黑体;" parent="1" vertex="1">
          <mxGeometry x="-220" y="68" width="120" height="60" as="geometry" />
        </mxCell>
        <mxCell id="DIsmVBrg73zC50ADwtmq-9" style="edgeStyle=none;curved=1;rounded=0;orthogonalLoop=1;jettySize=auto;html=1;entryX=0;entryY=0.5;entryDx=0;entryDy=0;fontSize=12;startSize=8;endSize=8;fontFamily=思源黑体;" parent="1" source="DIsmVBrg73zC50ADwtmq-2" target="DIsmVBrg73zC50ADwtmq-3" edge="1">
          <mxGeometry relative="1" as="geometry" />
        </mxCell>
        <mxCell id="DIsmVBrg73zC50ADwtmq-2" value="创建密钥对" style="rounded=0;whiteSpace=wrap;html=1;fontSize=16;fontFamily=思源黑体;" parent="1" vertex="1">
          <mxGeometry x="-80" y="68" width="120" height="60" as="geometry" />
        </mxCell>
        <mxCell id="DIsmVBrg73zC50ADwtmq-10" style="edgeStyle=none;curved=1;rounded=0;orthogonalLoop=1;jettySize=auto;html=1;fontSize=12;startSize=8;endSize=8;fontFamily=思源黑体;" parent="1" source="DIsmVBrg73zC50ADwtmq-3" target="DIsmVBrg73zC50ADwtmq-4" edge="1">
          <mxGeometry relative="1" as="geometry" />
        </mxCell>
        <mxCell id="DIsmVBrg73zC50ADwtmq-3" value="导出&lt;br&gt;（自己的）&lt;br&gt;公钥" style="rounded=0;whiteSpace=wrap;html=1;fontSize=16;fontFamily=思源黑体;" parent="1" vertex="1">
          <mxGeometry x="60" y="68" width="120" height="60" as="geometry" />
        </mxCell>
        <mxCell id="DIsmVBrg73zC50ADwtmq-11" style="edgeStyle=none;curved=1;rounded=0;orthogonalLoop=1;jettySize=auto;html=1;fontSize=12;startSize=8;endSize=8;fontFamily=思源黑体;" parent="1" source="DIsmVBrg73zC50ADwtmq-4" target="DIsmVBrg73zC50ADwtmq-7" edge="1">
          <mxGeometry relative="1" as="geometry" />
        </mxCell>
        <mxCell id="DIsmVBrg73zC50ADwtmq-4" value="导入&lt;br&gt;（别人的）&lt;br&gt;公钥" style="rounded=0;whiteSpace=wrap;html=1;fontSize=16;fontFamily=思源黑体;" parent="1" vertex="1">
          <mxGeometry x="200" y="68" width="120" height="60" as="geometry" />
        </mxCell>
        <mxCell id="DIsmVBrg73zC50ADwtmq-5" value="加密消息" style="rounded=0;whiteSpace=wrap;html=1;fontSize=16;fontFamily=思源黑体;" parent="1" vertex="1">
          <mxGeometry x="360" y="68" width="120" height="60" as="geometry" />
        </mxCell>
        <mxCell id="DIsmVBrg73zC50ADwtmq-6" value="解密消息" style="rounded=0;whiteSpace=wrap;html=1;fontSize=16;fontFamily=思源黑体;" parent="1" vertex="1">
          <mxGeometry x="500" y="68" width="120" height="60" as="geometry" />
        </mxCell>
        <mxCell id="DIsmVBrg73zC50ADwtmq-13" value="你" style="text;html=1;strokeColor=none;fillColor=none;align=center;verticalAlign=middle;whiteSpace=wrap;rounded=0;fontSize=16;fontFamily=思源黑体;" parent="1" vertex="1">
          <mxGeometry x="-300" y="83" width="60" height="30" as="geometry" />
        </mxCell>
        <mxCell id="DIsmVBrg73zC50ADwtmq-14" value="" style="rounded=0;whiteSpace=wrap;html=1;fontSize=16;fillColor=none;fontFamily=思源黑体;" parent="1" vertex="1">
          <mxGeometry x="350" y="238" width="280" height="80" as="geometry" />
        </mxCell>
        <mxCell id="DIsmVBrg73zC50ADwtmq-15" style="edgeStyle=none;curved=1;rounded=0;orthogonalLoop=1;jettySize=auto;html=1;exitX=1;exitY=0.5;exitDx=0;exitDy=0;entryX=0;entryY=0.5;entryDx=0;entryDy=0;fontSize=12;startSize=8;endSize=8;fontFamily=思源黑体;" parent="1" source="DIsmVBrg73zC50ADwtmq-16" target="DIsmVBrg73zC50ADwtmq-18" edge="1">
          <mxGeometry relative="1" as="geometry" />
        </mxCell>
        <mxCell id="DIsmVBrg73zC50ADwtmq-16" value="下载安装&lt;br&gt;加密软件" style="rounded=0;whiteSpace=wrap;html=1;fontSize=16;fontFamily=思源黑体;" parent="1" vertex="1">
          <mxGeometry x="-220" y="248" width="120" height="60" as="geometry" />
        </mxCell>
        <mxCell id="DIsmVBrg73zC50ADwtmq-17" style="edgeStyle=none;curved=1;rounded=0;orthogonalLoop=1;jettySize=auto;html=1;entryX=0;entryY=0.5;entryDx=0;entryDy=0;fontSize=12;startSize=8;endSize=8;fontFamily=思源黑体;" parent="1" source="DIsmVBrg73zC50ADwtmq-18" target="DIsmVBrg73zC50ADwtmq-20" edge="1">
          <mxGeometry relative="1" as="geometry" />
        </mxCell>
        <mxCell id="DIsmVBrg73zC50ADwtmq-18" value="创建密钥对" style="rounded=0;whiteSpace=wrap;html=1;fontSize=16;fontFamily=思源黑体;" parent="1" vertex="1">
          <mxGeometry x="-80" y="248" width="120" height="60" as="geometry" />
        </mxCell>
        <mxCell id="DIsmVBrg73zC50ADwtmq-19" style="edgeStyle=none;curved=1;rounded=0;orthogonalLoop=1;jettySize=auto;html=1;fontSize=12;startSize=8;endSize=8;fontFamily=思源黑体;" parent="1" source="DIsmVBrg73zC50ADwtmq-20" target="DIsmVBrg73zC50ADwtmq-22" edge="1">
          <mxGeometry relative="1" as="geometry" />
        </mxCell>
        <mxCell id="DIsmVBrg73zC50ADwtmq-20" value="导出&lt;br&gt;（自己的）&lt;br&gt;公钥" style="rounded=0;whiteSpace=wrap;html=1;fontSize=16;fontFamily=思源黑体;" parent="1" vertex="1">
          <mxGeometry x="60" y="248" width="120" height="60" as="geometry" />
        </mxCell>
        <mxCell id="DIsmVBrg73zC50ADwtmq-21" style="edgeStyle=none;curved=1;rounded=0;orthogonalLoop=1;jettySize=auto;html=1;fontSize=12;startSize=8;endSize=8;fontFamily=思源黑体;" parent="1" source="DIsmVBrg73zC50ADwtmq-22" target="DIsmVBrg73zC50ADwtmq-14" edge="1">
          <mxGeometry relative="1" as="geometry" />
        </mxCell>
        <mxCell id="DIsmVBrg73zC50ADwtmq-22" value="导入&lt;br&gt;（别人的）&lt;br&gt;公钥" style="rounded=0;whiteSpace=wrap;html=1;fontSize=16;fontFamily=思源黑体;" parent="1" vertex="1">
          <mxGeometry x="200" y="248" width="120" height="60" as="geometry" />
        </mxCell>
        <mxCell id="DIsmVBrg73zC50ADwtmq-23" value="加密消息" style="rounded=0;whiteSpace=wrap;html=1;fontSize=16;fontFamily=思源黑体;" parent="1" vertex="1">
          <mxGeometry x="360" y="248" width="120" height="60" as="geometry" />
        </mxCell>
        <mxCell id="DIsmVBrg73zC50ADwtmq-24" value="解密消息" style="rounded=0;whiteSpace=wrap;html=1;fontSize=16;fontFamily=思源黑体;" parent="1" vertex="1">
          <mxGeometry x="500" y="248" width="120" height="60" as="geometry" />
        </mxCell>
        <mxCell id="DIsmVBrg73zC50ADwtmq-25" value="对方" style="text;html=1;strokeColor=none;fillColor=none;align=center;verticalAlign=middle;whiteSpace=wrap;rounded=0;fontSize=16;fontFamily=思源黑体;" parent="1" vertex="1">
          <mxGeometry x="-300" y="263" width="60" height="30" as="geometry" />
        </mxCell>
        <mxCell id="YACWjhygyki7UJ2SljOf-1" value="" style="shape=curlyBracket;whiteSpace=wrap;html=1;rounded=1;labelPosition=left;verticalLabelPosition=middle;align=right;verticalAlign=middle;fontSize=16;rotation=90;fontFamily=思源黑体;" parent="1" vertex="1">
          <mxGeometry x="180" y="-87.5" width="20" height="260" as="geometry" />
        </mxCell>
        <mxCell id="YACWjhygyki7UJ2SljOf-2" value="交换公钥" style="text;html=1;strokeColor=none;fillColor=none;align=center;verticalAlign=middle;whiteSpace=wrap;rounded=0;fontSize=16;fontFamily=思源黑体;" parent="1" vertex="1">
          <mxGeometry x="157.5" y="2.5" width="70" height="30" as="geometry" />
        </mxCell>
        <mxCell id="DIsmVBrg73zC50ADwtmq-27" style="edgeStyle=none;curved=1;rounded=0;orthogonalLoop=1;jettySize=auto;html=1;exitX=0.5;exitY=1;exitDx=0;exitDy=0;entryX=0.5;entryY=0;entryDx=0;entryDy=0;fontSize=12;startSize=8;endSize=8;dashed=1;dashPattern=8 8;fontFamily=思源黑体;" parent="1" source="DIsmVBrg73zC50ADwtmq-3" target="DIsmVBrg73zC50ADwtmq-22" edge="1">
          <mxGeometry relative="1" as="geometry" />
        </mxCell>
        <mxCell id="DIsmVBrg73zC50ADwtmq-26" style="edgeStyle=none;curved=1;rounded=0;orthogonalLoop=1;jettySize=auto;html=1;exitX=0.5;exitY=0;exitDx=0;exitDy=0;entryX=0.5;entryY=1;entryDx=0;entryDy=0;fontSize=12;startSize=8;endSize=8;dashed=1;dashPattern=8 8;fontFamily=思源黑体;" parent="1" source="DIsmVBrg73zC50ADwtmq-20" target="DIsmVBrg73zC50ADwtmq-4" edge="1">
          <mxGeometry relative="1" as="geometry" />
        </mxCell>
        <mxCell id="DIsmVBrg73zC50ADwtmq-28" style="edgeStyle=none;curved=1;rounded=0;orthogonalLoop=1;jettySize=auto;html=1;exitX=0.5;exitY=1;exitDx=0;exitDy=0;entryX=0.5;entryY=0;entryDx=0;entryDy=0;fontSize=12;startSize=8;endSize=8;dashed=1;dashPattern=8 8;fontFamily=思源黑体;" parent="1" source="DIsmVBrg73zC50ADwtmq-5" target="DIsmVBrg73zC50ADwtmq-24" edge="1">
          <mxGeometry relative="1" as="geometry" />
        </mxCell>
        <mxCell id="DIsmVBrg73zC50ADwtmq-29" style="edgeStyle=none;curved=1;rounded=0;orthogonalLoop=1;jettySize=auto;html=1;exitX=0.5;exitY=0;exitDx=0;exitDy=0;entryX=0.5;entryY=1;entryDx=0;entryDy=0;fontSize=12;startSize=8;endSize=8;dashed=1;dashPattern=8 8;fontFamily=思源黑体;" parent="1" source="DIsmVBrg73zC50ADwtmq-23" target="DIsmVBrg73zC50ADwtmq-6" edge="1">
          <mxGeometry relative="1" as="geometry" />
        </mxCell>
      </root>
    </mxGraphModel>
  </diagram>
</mxfile>
